<?xml version="1.0" encoding="UTF-8"?>
<svg width="230px" height="67px" viewBox="0 0 230 67" version="1.1" xmlns="http://www.w3.org/2000/svg" xmlns:xlink="http://www.w3.org/1999/xlink">
    <!-- Generator: Sketch 56.3 (81716) - https://sketch.com -->
    <title>Hubspot</title>
    <desc>Created with Sketch.</desc>
    <g id="Website" stroke="none" stroke-width="1" fill="none" fill-rule="evenodd">
        <g id="Landing-Page" transform="translate(-1319.000000, -1422.000000)" fill="#2D2D2D">
            <g id="Customers" transform="translate(50.000000, 1422.000000)">
                <g id="Hubspot" transform="translate(1269.000000, 0.000000)">
                    <path d="M0,13 L8.01987605,13 L8.01987605,30.7332251 L24.9343032,30.7332251 L24.9343032,13 L32.9645118,13 L32.9645118,56.5296085 L24.9343032,56.5296085 L24.9343032,38.4239418 L8.01987605,38.4239418 L8.01987605,56.5296085 L0,56.5296085 L0,13 Z M58.371418,42.3513446 C58.371418,45.9952805 55.3884482,48.9605054 51.7280208,48.9605054 C48.0662457,48.9605054 45.0850728,45.9952805 45.0850728,42.3513446 L45.0850728,23.6103365 L37.4793983,23.6103365 L37.4793983,42.3513446 C37.4793983,50.1699344 43.871669,56.5296085 51.7280208,56.5296085 C59.5825756,56.5296085 65.9743971,50.1699344 65.9743971,42.3513446 L65.9743971,23.6103365 L58.371418,23.6103365 L58.371418,42.3513446 L58.371418,42.3513446 Z M87.2064933,23.8298669 C83.4337553,23.8298669 80.8002961,24.9194708 78.2571347,27.4040538 L78.2571347,13 L70.6267518,13 L70.6267518,39.6946248 C70.6267518,49.6866099 77.8856112,56.5296085 86.0407092,56.5296085 C95.1068709,56.5296085 103.050376,49.5645492 103.050376,40.1801848 C103.050376,30.9147513 95.7254777,23.8298669 87.2064933,23.8298669 L87.2064933,23.8298669 Z M87.3960736,49.5041896 C82.2257424,49.5041896 78.2719597,45.2065808 78.2719597,40.1801848 C78.2719597,35.1528946 82.2257424,30.8539445 87.3960736,30.8539445 C91.7770859,30.8539445 95.7331148,35.1528946 95.7331148,40.1801848 C95.7331148,45.2065808 91.7770859,49.5041896 87.3960736,49.5041896 L87.3960736,49.5041896 Z M115.865915,25.743045 C115.865915,21.9256309 118.421655,20.7153077 121.219537,20.7153077 C123.472039,20.7153077 126.452762,22.4107439 128.397982,24.4701265 L133.385921,18.6572663 C130.893074,15.3272008 125.844039,13.0254852 121.706516,13.0254852 C113.431021,13.0254852 107.468226,17.8095483 107.468226,25.743045 C107.468226,40.4573922 125.661197,35.7931543 125.661197,44.0306849 C125.661197,46.5711565 123.167452,48.8138537 120.309372,48.8138537 C115.805267,48.8138537 114.344331,46.6337517 112.276468,44.3320362 L106.738656,50.0232828 C110.269702,54.3231271 114.648917,56.5041233 119.882142,56.5041233 C127.730408,56.5041233 134.058437,51.6597006 134.058437,44.0892561 C134.058437,27.7402795 115.865915,32.8274823 115.865915,25.743045 L115.865915,25.743045 Z M154.145863,23.4033252 C145.991664,23.4033252 138.731906,30.2422998 138.731906,40.2365205 L138.731906,67 L146.361839,67 L146.361839,52.5275386 C148.90545,55.0103332 151.537562,56.1017255 155.311647,56.1017255 C163.830182,56.1017255 171.155979,49.0177353 171.155979,39.7523018 C171.155979,30.366596 163.210228,23.4033252 154.145863,23.4033252 L154.145863,23.4033252 Z M155.501677,49.0785421 C150.331795,49.0785421 146.377563,44.7751209 146.377563,39.7523018 C146.377563,34.7250116 150.331795,30.4260615 155.501677,30.4260615 C159.881791,30.4260615 163.838269,34.7250116 163.838269,39.7523018 C163.838269,44.7751209 159.881791,49.0785421 155.501677,49.0785421 L155.501677,49.0785421 Z M227.320718,49.5041896 C222.820207,49.5041896 221.542562,47.5673147 221.542562,44.5989601 L221.542562,31.4593297 L228.538165,31.4593297 L228.538165,24.7991985 L221.542562,24.7991985 L221.542562,16.0179837 L213.817838,19.4687686 L213.817838,46.2340366 C213.817838,53.0774823 218.561838,56.5296085 225.069115,56.5296085 C226.042623,56.5296085 227.382714,56.4670133 228.113631,56.2877227 L230,49.3852587 C229.148236,49.4438299 228.175177,49.5041896 227.320718,49.5041896 L227.320718,49.5041896 Z" id="Shape"></path>
                    <path d="M206.892921,31.3509255 C205.440009,28.8358117 203.396294,26.8195003 200.841204,25.3015425 C198.931803,24.1831654 196.951898,23.4733483 194.720768,23.1684996 L194.720768,15.1768848 C196.951898,14.2237276 198.336538,12.114031 198.336538,9.65279324 C198.336538,6.29811086 195.662751,3.57961491 192.331228,3.57961491 C188.997028,3.57961491 186.276388,6.29811086 186.276388,9.65279324 C186.276388,12.114031 187.581153,14.2237276 189.812283,15.1768848 L189.812283,23.1720914 C188.027379,23.4315944 186.176433,23.9914564 184.486129,24.8516774 C181.033679,22.2135466 169.712925,13.5588072 163.090486,8.50388636 C163.247557,7.93414708 163.368484,7.34689807 163.368484,6.72732344 C163.368484,3.01167149 160.377878,0 156.683573,0 C152.989268,0 150,3.01167149 150,6.72732344 C150,10.4425264 152.992391,13.4550958 156.686696,13.4550958 C157.946839,13.4550958 159.112381,13.084249 160.118174,12.4745516 L161.515754,13.5412975 L180.719536,27.4628702 C179.704372,28.4007626 178.758819,29.4675084 178.002466,30.6644548 C176.469679,33.1045911 175.533051,35.7894146 175.533051,38.7180271 L175.533051,39.3290714 C175.533051,41.3848919 175.921268,43.3257768 176.582574,45.1490323 C177.164899,46.7410697 178.016299,48.1885397 179.070731,49.4972789 L172.697285,55.9255902 C170.810805,55.2191292 168.688024,55.6875142 167.268499,57.1234345 C166.29647,58.0966208 165.752042,59.4207816 165.756686,60.8004753 C165.757132,62.1891306 166.294834,63.4942781 167.271177,64.4761692 C168.23779,65.4548938 169.553537,66.0036332 170.924875,65.9999819 C172.296579,66.0034923 173.61269,65.4548021 174.579912,64.4761692 C175.551307,63.503034 176.095922,62.1796841 176.092618,60.8004753 C176.092618,60.2630617 176.010067,59.738668 175.85478,59.2403145 L182.442414,52.6113149 C183.345576,53.2389709 184.321026,53.7674053 185.369657,54.2231069 C187.437914,55.122837 189.720806,55.6710259 192.219226,55.6710259 L192.677053,55.6710259 C195.439192,55.6710259 198.044706,55.0182277 200.49404,53.6829994 C203.075011,52.2718958 205.095076,50.342235 206.621169,47.8787524 C208.155294,45.4085353 209,42.6792641 209,39.676572 L209,39.5266169 C209,36.5728622 208.320398,33.8476317 206.892921,31.3509255 L206.892921,31.3509255 Z M198.843897,45.2567844 C197.055869,47.256035 195.000552,48.4875518 192.677053,48.4875518 L192.294191,48.4875518 C190.967115,48.4875518 189.669044,48.1185009 188.398192,47.447295 C186.965807,46.7082951 185.877016,45.6541203 184.985902,44.319341 C184.064892,43.0092549 183.565119,41.5788457 183.565119,40.0622347 L183.565119,39.6015944 C183.565119,38.1105746 183.849365,36.6967771 184.566004,35.3615489 C185.332174,33.9019568 186.366972,32.7669679 187.743133,31.8645439 C189.094305,30.9684056 190.5374,30.5288667 192.144706,30.5288667 L192.294191,30.5288667 C193.751566,30.5288667 195.131296,30.8180016 196.433384,31.4883095 C197.760014,32.2030652 198.843897,33.1795687 199.68414,34.4640636 C200.500287,35.7490075 200.985781,37.134969 201.14196,38.6448455 C201.166503,38.9586735 201.178997,39.280134 201.178997,39.5872275 C201.178997,41.6363135 200.400779,43.5340975 198.843897,45.2567844 Z" id="Shape"></path>
                </g>
            </g>
        </g>
    </g>
</svg>