<?xml version="1.0" encoding="UTF-8"?>
<svg width="184px" height="49px" viewBox="0 0 184 49" version="1.1" xmlns="http://www.w3.org/2000/svg" xmlns:xlink="http://www.w3.org/1999/xlink">
    <!-- Generator: Sketch 56.3 (81716) - https://sketch.com -->
    <title>LinkedIn</title>
    <desc>Created with Sketch.</desc>
    <g id="Website" stroke="none" stroke-width="1" fill="none" fill-rule="evenodd">
        <g id="Landing-Page" transform="translate(-642.000000, -1431.000000)">
            <g id="Customers" transform="translate(50.000000, 1422.000000)">
                <g id="LinkedIn" transform="translate(592.000000, 9.000000)">
                    <g id="linkedin-(1)">
                        <path d="M134.973333,3.52814037 C134.973333,1.61292508 136.568655,0.0585198321 138.535455,0.0585198321 L179.606722,0.0585198321 C181.574158,0.0585198321 183.168844,1.61292508 183.168844,3.52814037 L183.168844,45.0244717 C183.168844,46.9403222 181.574158,48.493457 179.606722,48.493457 L138.535455,48.493457 C136.568655,48.493457 134.973333,46.9403222 134.973333,45.0251069 L134.973333,3.52750514 L134.973333,3.52814037 Z" id="Path" fill="#2D2D2D"></path>
                        <path d="M0.0598716373,40.6299578 L20.1731389,40.6299578 L20.1731389,34.0350108 L7.33995842,34.0350108 L7.33995842,8.87676816 L0.0598716373,8.87676816 L0.0598716373,40.6299578 Z M30.3563551,40.6299578 L30.3563551,18.759025 L23.0769044,18.759025 L23.0769044,40.6299578 L30.3563551,40.6299578 Z M26.7172659,15.7734489 C29.2552778,15.7734489 30.8353333,14.0939035 30.8353333,11.9938366 C30.7882624,9.84803322 29.2552778,8.21613004 26.765609,8.21613004 C24.275304,8.21613004 22.6469054,9.84866845 22.6469054,11.9938366 C22.6469054,14.0939035 24.226961,15.7734489 26.6695589,15.7734489 L26.7172659,15.7734489 L26.7172659,15.7734489 Z M33.7359184,40.6299578 L41.0153691,40.6299578 L41.0153691,28.4157755 C41.0153691,27.7621249 41.0624399,27.1084743 41.2551762,26.6428515 C41.7805892,25.3368208 42.9783527,23.9837831 44.9896794,23.9837831 C47.6243775,23.9837831 48.678384,25.9898361 48.678384,28.9284053 L48.678384,40.6293226 L55.9565625,40.6293226 L55.9565625,28.0892678 C55.9565625,21.3710864 52.3651802,18.2451248 47.5753983,18.2451248 C43.6487949,18.2451248 41.9243462,20.4372999 40.9663899,21.9307231 L41.0153691,21.9307231 L41.0153691,18.759025 L33.7359184,18.759025 C33.8319684,20.8114497 33.7359184,40.6299578 33.7359184,40.6299578 L33.7359184,40.6299578 Z M66.2262873,8.87676816 L58.9468366,8.87676816 L58.9468366,40.6299578 L66.2262873,40.6299578 L66.2262873,33.538897 L68.0455139,31.2514376 L73.7449091,40.6299578 L82.6998293,40.6299578 L73.1228099,27.0532094 L81.5027019,17.8169804 L72.7398818,17.8169804 C72.7398818,17.8169804 66.7536086,26.0800387 66.2262873,27.0608322 L66.2262873,8.87676816 Z" id="Shape" fill="#2D2D2D"></path>
                        <path d="M102.16619,31.5067996 C102.26224,30.9452572 102.405997,29.8679089 102.405997,28.6495398 C102.405997,22.9960021 99.5321278,17.2560733 91.9657991,17.2560733 C83.8721491,17.2560733 80.1363736,23.6483822 80.1363736,29.4461169 C80.1363736,36.6165813 84.6863484,41.0943102 92.6356052,41.0943102 C95.7969885,41.0943102 98.7172924,40.6293226 101.112819,39.6491643 L100.154863,34.8481039 C98.1906072,35.4985783 96.1792805,35.8244508 93.6896117,35.8244508 C90.2896935,35.8244508 87.3210465,34.4301232 87.0812393,31.4597927 L102.16619,31.5055291 L102.16619,31.5067996 L102.16619,31.5067996 Z M87.0335323,26.588857 C87.2249964,24.7225544 88.471103,21.9688369 91.5835071,21.9688369 C94.8873752,21.9688369 95.6545036,24.9086765 95.6545036,26.588857 L87.0341684,26.588857 L87.0335323,26.588857 Z M120.373722,8.87676816 L120.373722,19.86877 L120.277672,19.86877 C119.223665,18.3302454 117.020875,17.3037154 114.101207,17.3037154 C108.497226,17.3037154 103.564959,21.7820796 103.61203,29.4327771 C103.61203,36.5244731 108.06659,41.1432228 113.620956,41.1432228 C116.638582,41.1432228 119.511179,39.8359216 120.94875,37.3166036 L121.091871,37.3166036 L121.380021,40.6299578 L127.844637,40.6299578 C127.749223,39.0901628 127.652536,36.4310944 127.652536,33.8183978 L127.652536,8.87613293 L120.373086,8.87613293 L120.373722,8.87676816 Z M120.373722,30.506314 C120.373722,31.0653155 120.326015,31.6262226 120.229329,32.0912102 C119.799966,34.0985337 118.075517,35.4966727 115.96814,35.4966727 C112.951786,35.4966727 110.98753,33.0713685 110.98753,29.2460198 C110.98753,25.6544353 112.664908,22.7616026 116.016483,22.7616026 C118.266981,22.7616026 119.847037,24.3007624 120.278308,26.2128015 C120.373722,26.6339583 120.373722,27.1008516 120.373722,27.5201027 L120.373722,30.5056788 L120.373722,30.506314 Z" id="Shape" fill="#2D2D2D"></path>
                        <path d="M149.583122,40.6032782 L149.583122,18.7323454 L142.303671,18.7323454 L142.303671,40.6032782 L149.583758,40.6032782 L149.583122,40.6032782 Z M145.944669,15.7467693 C148.482681,15.7467693 150.062736,14.0672239 150.062736,11.9684275 C150.015029,9.82198884 148.482681,8.18945043 145.993012,8.18945043 C143.501435,8.18945043 141.874308,9.82198884 141.874308,11.9684275 C141.874308,14.0672239 143.453728,15.7467693 145.896962,15.7467693 L145.944033,15.7467693 L145.944669,15.7467693 Z M153.612136,40.6032782 L160.890951,40.6032782 L160.890951,28.3910016 C160.890951,27.7379862 160.938658,27.0837004 161.130758,26.6174424 C161.656807,25.3107764 162.854571,23.958374 164.865897,23.958374 C167.499323,23.958374 168.55333,25.9637918 168.55333,28.9042666 L168.55333,40.6032782 L175.832144,40.6032782 L175.832144,28.0632234 C175.832144,21.3456773 172.241398,18.2197156 167.452252,18.2197156 C163.525649,18.2197156 161.8012,20.4112555 160.843244,21.9040435 L160.891587,21.9040435 L160.891587,18.7329806 L153.612773,18.7329806 C153.70755,20.7847701 153.612136,40.6039134 153.612136,40.6039134 L153.612136,40.6032782 Z" id="Shape" fill="#FFFFFF"></path>
                    </g>
                </g>
            </g>
        </g>
    </g>
</svg>