<?xml version="1.0" encoding="UTF-8"?>
<svg width="172px" height="40px" viewBox="0 0 172 40" version="1.1" xmlns="http://www.w3.org/2000/svg" xmlns:xlink="http://www.w3.org/1999/xlink">
    <!-- Generator: Sketch 56.3 (81716) - https://sketch.com -->
    <title>Menu</title>
    <desc>Created with Sketch.</desc>
    <defs>
        <rect id="path-1" x="0" y="0" width="40" height="40"></rect>
    </defs>
    <g id="Website" stroke="none" stroke-width="1" fill="none" fill-rule="evenodd">
        <g id="Landing-Page" transform="translate(-150.000000, -35.000000)">
            <g id="Hero" transform="translate(-513.000000, -478.000000)">
                <g id="Menu" transform="translate(663.000000, 508.000000)">
                    <g id="UI/logo/black" transform="translate(0.000000, 5.000000)">
                        <g id="Black-Logo">
                            <g id="shapes/O" transform="translate(132.459770, 0.000000)" fill="#FFD766">
                                <path d="M40,20.0002422 C40,31.0460991 31.0456147,40.0004844 19.9997578,40.0004844 C8.95390092,40.0004844 0,31.0460991 0,20.0002422 C0,8.95438529 8.95390092,4.97379915e-14 19.9997578,4.97379915e-14 C31.0456147,4.97379915e-14 40,8.95438529 40,20.0002422" id="O"></path>
                            </g>
                            <g id="shapes/I" transform="translate(111.206897, 0.000000)" fill="#2D2D2D">
                                <path d="M11.9932631,40 L2.0067369,40 C0.898516448,40 0,39.1108574 0,38.0141985 L0,1.98580152 C0,0.88914263 0.898516448,0 2.0067369,0 L11.9932631,0 C13.1014836,0 14,0.88914263 14,1.98580152 L14,38.0141985 C14,39.1108574 13.1014836,40 11.9932631,40" id="I"></path>
                            </g>
                            <g id="shapes/R" transform="translate(73.643678, 0.000000)" fill="#2D2D2D">
                                <path d="M13.6928351,23.210887 C13.6928351,17.9862926 17.9103207,13.7508012 23.1127044,13.7508012 L27.0360952,13.7508012 C28.1206616,13.7503082 29,12.8677087 29,11.7785119 L29,1.97228933 C29,0.88309255 28.1206616,0 27.0360952,0 L20.5385162,0 C9.19598415,0 0.000490976196,9.23425867 0.000490976196,20.6257088 L0,38.0277107 C0,39.1169075 0.879338367,40 1.96390478,40 L11.7284394,40 C12.8130058,40 13.6923442,39.1169075 13.6923442,38.0277107 L13.6928351,23.210887 Z" id="R"></path>
                            </g>
                            <g id="shapes/V" transform="translate(32.620690, 0.000000)" fill="#2D2D2D">
                                <path d="M2.09838291,0 L37.9010987,0 C39.45947,0 40.4728829,1.63980819 39.775965,3.03382858 L21.8746071,38.8412861 C21.1027575,40.386238 18.8977721,40.386238 18.1253985,38.8412861 L0.22404057,3.03382858 C-0.472877323,1.63980819 0.540535614,0 2.09838291,0" id="V"></path>
                            </g>
                            <g id="shapes/A">
                                <mask id="mask-2" fill="white">
                                    <use xlink:href="#path-1"></use>
                                </mask>
                                <g id="Background"></g>
                                <path d="M2.09843927,40 C0.540070298,40 -0.472817134,38.3601918 0.224099723,36.9661714 L18.125431,1.15871394 C18.8972795,-0.386237979 21.1017376,-0.386237979 21.8746341,1.15871394 L39.7759654,36.9661714 C40.4728822,38.3601918 39.4594708,40 37.9011018,40 L2.09843927,40 Z" id="A" fill="#2D2D2D" fill-rule="evenodd" mask="url(#mask-2)"></path>
                            </g>
                        </g>
                    </g>
                </g>
            </g>
        </g>
    </g>
</svg>