<?xml version="1.0" encoding="UTF-8"?>
<svg width="258px" height="59px" viewBox="0 0 258 59" version="1.1" xmlns="http://www.w3.org/2000/svg" xmlns:xlink="http://www.w3.org/1999/xlink">
    <!-- Generator: Sketch 56.3 (81716) - https://sketch.com -->
    <title>Pipedrive</title>
    <desc>Created with Sketch.</desc>
    <g id="Website" stroke="none" stroke-width="1" fill="none" fill-rule="evenodd">
        <g id="Landing-Page" transform="translate(-265.000000, -1426.000000)" fill="#2D2D2D">
            <g id="Customers" transform="translate(50.000000, 1422.000000)">
                <g id="Pipedrive" transform="translate(215.000000, 4.000000)">
                    <path d="M40,0 L48.2667251,0 L48.2667251,9 L40,9 L40,0 Z M184.733275,0 L193,0 L193,9 L184.733275,9 L184.733275,0 Z" id="Shape"></path>
                    <path d="M22.0739067,12 C16.8765992,12 13.8707691,14.3483466 12.4208981,15.9707204 C12.2486312,14.5727012 11.3327371,12.759041 7.75958821,12.759041 L0,12.759041 L0,20.9385723 L3.18011769,20.9385723 C3.71813602,20.9385723 3.89141328,21.1115441 3.89141328,21.6523353 L3.89141328,59 L13.141287,59 L13.141287,44.9826703 C13.141287,44.6041673 13.1337093,44.2505926 13.1241108,43.934156 C14.56893,45.2706175 17.3282315,47.1102235 21.6384402,47.1102235 C30.6791688,47.1102235 37,39.8932294 37,29.556638 C37,19.0562321 30.9984435,12 22.0739067,12 M20.1946314,38.9968285 C15.2150571,38.9968285 12.9528543,34.1953347 12.9528543,29.746907 C12.9528543,22.7400227 16.7578815,20.2426151 20.3184009,20.2426151 C24.6846848,20.2426151 27.621305,24.0337501 27.621305,29.6812794 C27.621305,36.1214266 23.8880135,38.9968285 20.1951366,38.9968285" id="Shape"></path>
                    <path d="M49.1145305,37.3286532 L49.1145305,17.8862232 C49.1145305,14.5989186 47.5167956,13 44.2452192,13 L36,13 L36,21.0360778 L39.1763171,21.0360778 C39.7110795,21.0360778 39.8829494,21.206016 39.8829494,21.736823 L39.8829494,41.1147764 C39.8829494,44.4485642 41.4312906,46 44.7441964,46 L53,46 L53,38.0348964 L49.8226748,38.0348964 C49.3116013,38.0348964 49.1145305,37.8329698 49.1145305,37.329153" id="Path"></path>
                    <path d="M73.050207,11.9091828 C67.8577975,11.9091828 64.8597121,14.2620671 63.4050705,15.8875757 C63.2335206,14.4868552 62.3232975,12.6696905 58.7550611,12.6696905 L51,12.6696905 L51,20.8650269 L54.1797264,20.8650269 C54.7150628,20.8650269 54.8886308,21.0383329 54.8886308,21.5801692 L54.8886308,59 L64.1311299,59 L64.1311299,44.9555849 C64.1311299,44.5763506 64.1210387,44.2220926 64.1094339,43.9050445 C65.5464159,45.2440885 68.3113954,47.0872491 72.6147732,47.0872491 C81.6453577,47.0872491 87.9553639,39.8563098 87.9553639,29.4997451 C87.9553639,18.9790495 81.9647431,11.9091828 73.0507116,11.9091828 M71.1656817,38.9581767 C66.2058736,38.9581767 63.9383886,34.1474052 63.9383886,29.6903818 C63.9383886,22.6699583 67.7377126,20.167725 71.2968669,20.167725 C75.6572598,20.167725 78.5892481,23.9661855 78.5892481,29.6246274 C78.5892481,36.0772188 74.8651032,38.9581767 71.1656817,38.9581767 M104.984207,11.9091828 C95.0322986,11.9091828 88.0734305,19.1436902 88.0734305,29.4997451 C88.0734305,39.688101 95.5822672,47.0872491 105.92874,47.0872491 C114.068274,47.0872491 119.041201,42.2198982 119.251097,42.0139699 L119.622452,41.6439105 L115.599609,34.8966989 L115.001203,35.4686088 C114.962856,35.497663 111.311368,38.8975196 106.488295,38.8975196 C101.858972,38.8975196 98.4703589,36.0430673 97.6716431,31.5651453 L119.576537,31.5651453 L119.629011,30.9534769 C119.643139,30.8698822 119.826294,28.883999 119.826294,27.9134852 C119.826294,18.341895 113.861405,11.9086731 104.984207,11.9086731 M98.0147428,24.6415693 C99.0173001,21.3390699 101.522937,19.4678745 104.984207,19.4678745 C107.764323,19.4678745 109.907687,21.6046359 110.283583,24.6415693 L98.0147428,24.6415693 M153.423318,37.480488 L153.423318,4.98203872 C153.423318,1.63213505 151.802172,0 148.484701,0 L140.228109,0 L140.228109,8.19482674 L143.406826,8.19482674 C143.941658,8.19482674 144.118253,8.36966194 144.118253,8.91200788 L144.118253,14.7865727 C142.754937,13.542847 140.091878,11.9086731 135.50847,11.9086731 C126.543983,11.9086731 120.288469,19.1436902 120.288469,29.4992354 C120.288469,40.0204408 126.282622,47.0872491 135.196653,47.0872491 C140.294206,47.0872491 143.230735,44.6966453 144.665699,43.0323977 C144.852386,44.48511 145.783296,46.3236831 149.240529,46.3236831 L157.243833,46.3236831 L157.243833,38.2012372 L154.131213,38.2012372 C153.619086,38.2012372 153.423318,37.9942894 153.423318,37.480488 M136.949489,38.9586865 C132.5563,38.9586865 129.714123,35.2443304 129.714123,29.4997451 C129.714123,23.9157228 132.671339,20.167725 137.075628,20.167725 C142.068233,20.167725 144.305949,24.8189531 144.305949,29.4385783 C144.305949,36.460531 140.502588,38.9581767 136.949489,38.9581767 M177.847976,12.224192 C174.003242,12.224192 170.463261,14.4664662 168.365307,18.0380997 L168.365307,17.2689267 C168.365307,14.2192503 166.698246,12.6691807 163.428204,12.6691807 L155.486456,12.6691807 L155.486456,20.8650269 L158.662651,20.8650269 C159.197483,20.8650269 159.374583,21.0373135 159.374583,21.5801692 L159.374583,46.3247026 L168.611027,46.3247026 L168.611027,32.8552558 C168.611027,31.0814176 168.835051,29.3733337 169.271998,27.7957391 C170.661552,23.1506277 174.357442,21.4970842 177.34594,21.4970842 C178.405513,21.4970842 179.177487,21.6107526 179.189092,21.6143206 L179.961066,21.7315571 L179.961066,12.4550968 L179.398988,12.358759 C179.370733,12.3536618 178.588667,12.224192 177.847976,12.224192 M193.108846,37.480488 L193.108846,17.6527486 C193.108846,14.3002963 191.518479,12.6696905 188.240868,12.6696905 L180.7729,12.6696905 L180.7729,20.8650269 L183.159966,20.8650269 C183.698834,20.8650269 183.869879,21.0383329 183.869879,21.5796594 L183.869879,41.3416444 C183.869879,44.741501 185.420387,46.3236831 188.742903,46.3236831 L197,46.3236831 L197,38.2007274 L193.819264,38.2007274 C193.307138,38.2007274 193.108846,37.9947991 193.108846,37.4809977" id="Shape"></path>
                    <path d="M228,21.0364559 L228,13.0004998 L223.079835,13.0004998 C220.206802,13.0004998 218.664781,13.9891253 217.754273,16.4192048 L211.743816,33.0803938 C211.528639,33.7311452 211.338809,34.3898846 211.174749,35.0551458 C210.999496,34.3873987 210.793021,33.6866641 210.56489,33.0678985 L204.554433,16.4132071 C203.631839,13.9581371 202.1432,13 199.229375,13 L194,13 L194,21.0364559 L195.3572,21.0364559 C196.07634,21.0364559 196.307492,21.2783643 196.479219,21.725195 L205.782712,46 L216.149806,46 L225.454809,21.725195 C225.625026,21.2783643 225.862725,21.0364559 226.583879,21.0364559 L228,21.0364559" id="Path"></path>
                    <path d="M257.803216,30.9486344 C257.811352,30.8649569 258,28.8886474 258,27.9235673 C258,18.4005651 251.986144,12 243.03731,12 C233.007945,12 226,19.1982902 226,29.5012678 C226,39.6389191 233.558635,47 243.988686,47 C252.192589,47 257.207271,42.1573571 257.41575,41.9524741 L257.794572,41.5842933 L253.747537,34.8713323 L253.13227,35.4403391 C253.100235,35.4692458 249.401513,38.8518438 244.55819,38.8518438 C239.890294,38.8518438 236.473273,36.0118815 235.666306,31.5566906 L257.748808,31.5566906 L257.803216,30.9481272 L257.803216,30.9486344 Z M236.014619,24.6687677 C237.033115,21.3825255 239.550118,19.5203217 243.03731,19.5203217 C245.846692,19.5203217 247.998602,21.6467435 248.379966,24.6687677 L236.015127,24.6687677 L236.014619,24.6687677 Z" id="Shape"></path>
                    <path d="M178.201527,12.0996084 C175.212926,12.0996084 172.429356,13.4502318 170.340163,15.6979074 C172.105145,15.682267 173.881236,15.6676357 175.657328,15.6676357 C177.217784,15.6676357 178.765109,15.682267 180.31698,15.6913485 L180.31698,12.3281599 L179.753903,12.232804 C179.725623,12.2277587 178.94287,12.0996084 178.201527,12.0996084 L178.201527,12.0996084 Z M217.944165,15.9915431 L217.563898,17.0606396 C221.139312,17.306345 224.68594,17.577277 228.218428,17.8804988 L228.218428,12.5405665 L223.28557,12.5405665 C220.404029,12.5405665 218.856703,13.5385244 217.944165,15.9915431 L217.944165,15.9915431 Z M22.066057,11.7878096 C16.8705977,11.7878096 13.8648265,14.1167143 12.4164811,15.725152 C12.2432655,14.3392115 11.3287071,12.5405665 7.75682882,12.5405665 L0,12.5405665 L0,20.6523797 L3.17898681,20.6523797 C3.71681381,20.6523797 3.89002946,20.8239195 3.89002946,21.359729 L3.89002946,42 C8.21114562,40.5004917 12.5583714,39.0771633 16.9296829,37.7306778 C14.2127728,36.1772337 12.9482481,32.6863993 12.9482481,29.3867813 C12.9482481,22.4394205 16.7519222,19.9621844 20.3111755,19.9621844 C24.6759067,19.9621844 27.6114826,23.7219326 27.6114826,29.3227062 C27.6114826,31.6748192 27.1004207,33.5405665 26.2752476,34.9663648 C29.7671669,33.9776586 33.2711353,33.0319319 36.7863567,32.1293996 C36.9014971,31.1834082 36.9868424,30.2091632 36.9868424,29.1990967 C36.9868424,18.7856233 30.9874201,11.7878096 22.066057,11.7878096 L22.066057,11.7878096 Z M44.2805845,12.5405665 L36.0192588,12.5405665 L36.0192588,20.6523797 L39.2017807,20.6523797 C39.7370827,20.6523797 39.9087833,20.8239195 39.9087833,21.3602335 L39.9087833,31.3514163 C42.9846632,30.5852463 46.0683686,29.8507816 49.1594077,29.1481392 L49.1594077,17.4728395 C49.1594077,14.155563 47.5585517,12.5405665 44.2805845,12.5405665 L44.2805845,12.5405665 Z M40.2845047,0 L48.5276503,0 L48.5276503,8.67486726 L40.2845047,8.67486726 L40.2845047,0 Z M73.3126374,11.7878096 C68.1151581,11.7878096 65.114942,14.1167143 63.6590216,15.725152 C63.4858059,14.3392115 62.5762975,12.5405665 59.0039143,12.5405665 L51.2430454,12.5405665 L51.2430454,20.6523797 L54.4245572,20.6523797 C54.9603642,20.6523797 55.1350949,20.8239195 55.1350949,21.359729 L55.1350949,27.8303102 C58.290777,27.162141 61.4522079,26.5213653 64.6190301,25.9080556 C65.6785241,21.6205704 68.6807602,19.9621844 71.5567459,19.9621844 C74.1600306,19.9621844 76.2345783,21.3183576 77.499608,23.5847008 C80.6912198,23.053432 83.9030318,22.5413353 87.1436288,22.0564832 C85.037771,15.7140523 79.9938123,11.7873051 73.3126374,11.7873051 L73.3126374,11.7878096 Z M105.273701,11.7878096 C97.9961191,11.7878096 92.3345431,15.6156692 89.8054937,21.6730413 C93.7354183,21.1074646 97.7062481,20.579223 101.711923,20.0888211 C102.736572,19.5555342 103.929386,19.2699709 105.273701,19.2699709 C105.783248,19.2699709 106.256435,19.3648223 106.714977,19.4959998 C110.34897,19.0853134 114.016294,18.7069168 117.712402,18.3603056 C115.171738,14.2403239 110.784787,11.7873051 105.273701,11.7873051 L105.273701,11.7878096 Z M148.812438,0 L140.548587,0 L140.548587,8.11130865 L143.730099,8.11130865 C144.264391,8.11130865 144.442152,8.28436201 144.442152,8.8211806 L144.442152,14.6358744 C143.077637,13.4048243 140.412237,11.7873051 135.8248,11.7873051 C130.803061,11.7873051 126.632251,14.0309444 123.930996,17.8088557 C133.856592,16.9778795 143.801025,16.3892553 153.755396,16.0435096 L153.755396,4.93126396 C153.755396,1.61550105 152.132825,0 148.812438,0 L148.812438,0 Z M163.770089,12.5405665 L155.819844,12.5405665 L155.819844,15.9859933 C160.038125,15.8517887 164.275595,15.7559282 168.549426,15.7074935 C168.08129,13.6131946 166.489524,12.5405665 163.770089,12.5405665 L163.770089,12.5405665 Z M184.604951,0 L192.848097,0 L192.848097,8.67486726 L184.604951,8.67486726 L184.604951,0 Z M188.604061,12.5405665 L181.130033,12.5405665 L181.130033,15.6968983 C185.212468,15.7337289 189.275713,15.8078947 193.317243,15.9183865 C192.857692,13.6621339 191.316426,12.5405665 188.604061,12.5405665 L188.604061,12.5405665 Z M199.367671,12.5405665 L194.123731,12.5405665 L194.123731,15.9431084 C197.713285,16.0490594 201.281123,16.1802369 204.828761,16.3416861 L204.707561,15.9859933 C203.782397,13.5077481 202.289612,12.5405665 199.367671,12.5405665 L199.367671,12.5405665 Z M243.266474,11.7878096 C237.586718,11.7878096 232.89222,14.1212551 229.894024,18.0222713 C234.23603,18.4031905 238.552281,18.8305264 242.819547,19.3007472 C243.47706,19.3728948 244.122452,19.4394926 244.768855,19.5151719 C248.88765,19.9803474 252.9615,20.4919396 257,21.0423804 C254.884547,15.3245561 249.884524,11.7873051 243.266474,11.7873051 L243.266474,11.7878096 Z" id="Shape"></path>
                </g>
            </g>
        </g>
    </g>
</svg>