<svg xmlns="http://www.w3.org/2000/svg" width="481" height="64">
  <g fill="none" fill-rule="evenodd">
    <text fill="#A9ACB0" font-family="Aeonik-Regular, Aeonik" font-size="12" letter-spacing="-.18" transform="translate(62 2)">
      <tspan x="358.212" y="52">5:23</tspan>
    </text>
    <g stroke-linecap="square" stroke-width="3.2">
      <g stroke="#7D77FF">
        <path d="M65.4 28.4v3.2M71.8 25.2v9.6M78.2 21.2v17.6M84.6 17.2v26.4M91 21.2v17.6M97.4 24.4v10.4M103.8 25.2v7.6M110.2 22v15.6M116.6 13.6v32M123 7.2v45.6M129.4 3.2v53.6M135.8 13.2v33.6M142.2 11.2v37.6M148.6 14.4v31.2"/>
      </g>
      <g stroke="#F7F7F7">
        <path d="M155 21.2v17.6M167.8 26.8v8M180.6 18.6v20.2M193.4 25.2v9.6M206.2 2.4v54.4M219 11.2v37.6M231.8 16.4v26.4M244.6 8v46.8M251 11.2v37.6M257.4 17.2v25.6M263.8 21.2v17.6M270.2 26v8M283 27.6v4.8M295.8 13.2v33.6M308.6 21.2v17.6M321.4 23.6v13.8M334.2 13.2v33.6M347 5v50M353.4 9.8v40.4M366.2 21.8v14.4M161.4 21.2v17.6M174.2 13.2v33.6M199.8 11.2v37.6M212.6 11.2v37.6M225.4 25.2v9.6M289.4 21.2v17.6M276.6 21.2v17.6M238.2 13.2v33.6M302.2 21.2v17.6M385.2 26v8M398 27.6v4.8M410.8 13.2v33.6M404.4 21.2v17.6M391.6 21.2v17.6M417.2 23.2v13.6M315 26.6v6.8M327.8 17.6v24.8M340.6 9.2v40M359.8 17.8v22.4M372.6 21.8V39M379 28.4v4.8M187 41.2V18.8"/>
      </g>
    </g>
    <path fill="#FFF" d="M64 30h87v34H64z" opacity=".797"/>
    <text fill="#A9ACB0" font-family="Aeonik-Regular, Aeonik" font-size="12" letter-spacing="-.18" transform="translate(62 2)">
      <tspan x="0" y="52">0:00</tspan>
    </text>
    <text fill="#2D2D2D" font-family="Helvetica" font-size="12" letter-spacing="-.18" transform="translate(62 2)">
      <tspan x="87" y="51">1:30</tspan>
    </text>
    <g>
      <path fill="#FFD766" fill-rule="nonzero" d="M17.1 13h.8C27.344 13 35 20.656 35 30.1v.8C35 40.344 27.344 48 17.9 48h-.8C7.656 48 0 40.344 0 30.9v-.8C0 20.656 7.656 13 17.1 13z"/>
      <g fill="#FFF">
        <path d="M14.786 35.95c.284 0 .514-.261.514-.585v-10.53c0-.324-.23-.585-.514-.585h-2.572c-.284 0-.514.261-.514.585v10.53c0 .324.23.585.514.585h2.572zM21.086 35.95c.284 0 .514-.261.514-.585v-10.53c0-.324-.23-.585-.514-.585h-2.572c-.284 0-.514.261-.514.585v10.53c0 .324.23.585.514.585h2.572z"/>
      </g>
    </g>
    <g stroke="#B4B4B4" stroke-linecap="round" stroke-linejoin="round" stroke-width="2">
      <path d="M470.838 27.09l9.09-9.09M475.15 18h4.779v4.779M468.779 18h-2.78c-1.104 0-1.999.89-1.999 1.985v11.959c0 1.096.89 1.985 1.985 1.985h11.959a1.995 1.995 0 0 0 1.985-1.999v-2.78"/>
    </g>
  </g>
</svg>
