<?xml version="1.0" encoding="UTF-8"?>
<svg width="96px" height="67px" viewBox="0 0 96 67" version="1.1" xmlns="http://www.w3.org/2000/svg" xmlns:xlink="http://www.w3.org/1999/xlink">
    <!-- Generator: Sketch 56.3 (81716) - https://sketch.com -->
    <title>Salesforce</title>
    <desc>Created with Sketch.</desc>
    <g id="Website" stroke="none" stroke-width="1" fill="none" fill-rule="evenodd">
        <g id="Landing-Page" transform="translate(-50.000000, -1422.000000)">
            <g id="Customers" transform="translate(50.000000, 1422.000000)">
                <g id="Salesforce">
                    <g id="salesforce-2">
                        <path d="M39.8228883,7.31320997 C42.9084543,4.09826068 47.2041514,2.10426428 51.9550363,2.10426428 C58.2705872,2.10426428 63.7805334,5.62586438 66.7148809,10.8537722 C69.2648136,9.7145099 72.0873035,9.08071382 75.0568938,9.08071382 C86.4476019,9.08071382 95.6823689,18.3959264 95.6823689,29.886138 C95.6823689,41.3776903 86.4476019,50.6929029 75.0568938,50.6929029 C73.6925562,50.6936988 72.3315569,50.5580865 70.9942016,50.2880894 C68.4102711,54.8972368 63.4862367,58.0114376 57.8344574,58.0114376 C55.468496,58.0114376 53.230673,57.4649824 51.2382089,56.4932192 C48.6187482,62.6546786 42.5158992,66.9748924 35.4030752,66.9748924 C27.9959547,66.9748924 21.683181,62.2880767 19.2600458,55.7150042 C18.2011333,55.9398687 17.1040091,56.0570894 15.9782501,56.0570894 C7.15921419,56.0571851 0.00961515964,48.8340359 0.00961515964,39.922296 C0.00961515964,33.9502668 3.22188293,28.7358623 7.99460301,25.9461252 C7.01201797,23.6852219 6.46546702,21.1897815 6.46546702,18.5662029 C6.46546702,8.31753447 14.7857405,0.00961515964 25.0481038,0.00961515964 C31.0732846,0.00961515964 36.42799,2.87433897 39.8228883,7.31320997" id="Path" fill="#2D2D2D"></path>
                        <path d="M13.8669373,34.736239 C13.8069862,34.8930121 13.8887725,34.9257649 13.9078304,34.9529632 C14.0876837,35.083783 14.27041,35.1779234 14.4543814,35.28279 C15.4301668,35.8006104 16.3515558,35.9518289 17.3150829,35.9518289 C19.2775715,35.9518289 20.4959386,34.907952 20.4959386,33.2275017 L20.4959386,33.1948447 C20.4959386,31.6410962 19.1208942,31.0769238 17.8302218,30.6694287 L17.6626269,30.6149364 C16.6895229,30.2987088 15.8500161,30.0262473 15.8500161,29.3856517 L15.8500161,29.3516539 C15.8500161,28.8037621 16.3406382,28.4002894 17.101136,28.4002894 C17.9461017,28.4002894 18.9491812,28.6810827 19.5951399,29.0381077 C19.5951399,29.0381077 19.78457,29.1607872 19.854098,28.9768159 C19.8922138,28.8786531 20.2193591,27.9982531 20.2534527,27.9028677 C20.2902278,27.7992461 20.2248179,27.7229186 20.1580673,27.6820254 C19.4207454,27.2336372 18.4012895,26.9269864 17.346495,26.9269864 L17.1502653,26.9283272 C15.3540309,26.9283272 14.1002294,28.013193 14.1002294,29.5681865 L14.1002294,29.6009393 C14.1002294,31.2404007 15.4835099,31.771916 16.7796411,32.1426359 L16.9881292,32.206705 C17.9325983,32.4969794 18.7462477,32.7463607 18.7462477,33.4114731 L18.7462477,33.4442259 C18.7462477,34.0520687 18.2175097,34.5044792 17.3643079,34.5044792 C17.0331404,34.5044792 15.9769093,34.4976796 14.8362105,33.7766384 C14.6984953,33.6961929 14.6181455,33.6376783 14.5118425,33.5736092 C14.4560094,33.5381748 14.3156128,33.4767872 14.2543209,33.662195 L13.8669373,34.736239 L13.8669373,34.736239 Z M42.5973024,34.736239 C42.5373513,34.8930121 42.6191376,34.9257649 42.6381956,34.9529632 C42.8180489,35.083783 43.0007752,35.1779234 43.1846508,35.28279 C44.1604362,35.8006104 45.0819209,35.9518289 46.0453523,35.9518289 C48.0078408,35.9518289 49.2263038,34.907952 49.2263038,33.2275017 L49.2263038,33.1948447 C49.2263038,31.6410962 47.8511635,31.0769238 46.5604912,30.6694287 L46.3928963,30.6149364 C45.4197923,30.2987088 44.5801897,30.0262473 44.5801897,29.3856517 L44.5801897,29.3516539 C44.5801897,28.8037621 45.0708118,28.4002894 45.8313096,28.4002894 C46.6762753,28.4002894 47.6793548,28.6810827 48.3254093,29.0381077 C48.3254093,29.0381077 48.5148394,29.1607872 48.5842716,28.9768159 C48.6223874,28.8786531 48.9495327,27.9982531 48.9836263,27.9028677 C49.0204972,27.7992461 48.9549915,27.7229186 48.8882409,27.6820254 C48.150919,27.2336372 47.1314631,26.9269864 46.0766686,26.9269864 L45.8803431,26.9283272 C44.0841087,26.9283272 42.8303072,28.013193 42.8303072,29.5681865 L42.8303072,29.6009393 C42.8303072,31.2404007 44.2135878,31.771916 45.5097189,32.1426359 L45.718207,32.206705 C46.6626762,32.4969794 47.4777621,32.7463607 47.4777621,33.4114731 L47.4777621,33.4442259 C47.4777621,34.0520687 46.9475875,34.5044792 46.0943858,34.5044792 C45.763314,34.5044792 44.707083,34.4976796 43.5663841,33.7766384 C43.4286689,33.6961929 43.3469784,33.6403598 43.2434526,33.5736092 C43.2079225,33.5504332 43.0416684,33.486364 42.9843988,33.662195 L42.5973024,34.736239 L42.5973024,34.736239 Z M62.2107915,31.4446749 C62.2107915,32.3946029 62.0336198,33.1427466 61.684735,33.6715804 C61.3398726,34.1949553 60.8179342,34.4497954 60.0902849,34.4497954 C59.3611992,34.4497954 58.8419422,34.1962961 58.5025386,33.6715804 C58.1590169,33.1441831 57.9847182,32.3946029 57.9847182,31.4446749 C57.9847182,30.4961835 58.1590169,29.7492848 58.5025386,29.2259098 C58.8419422,28.7080894 59.3611992,28.4559309 60.0902849,28.4559309 C60.8180299,28.4559309 61.3399684,28.7080894 61.6861716,29.2259098 C62.0337155,29.749189 62.2107915,30.4960877 62.2107915,31.4446749 L62.2107915,31.4446749 Z M63.8490079,29.6838749 C63.6881168,29.1400054 63.4373948,28.6603009 63.1035457,28.2610419 C62.7696009,27.8603464 62.3471659,27.5387557 61.8455304,27.3043144 C61.3453314,27.0713096 60.7539608,26.9527481 60.0902849,26.9527481 C59.4251725,26.9527481 58.8337061,27.0713096 58.3335071,27.3043144 C57.8319674,27.5387557 57.4095324,27.8604422 57.0742468,28.2610419 C56.7417385,28.6617374 56.4909208,29.141442 56.3287847,29.6838749 C56.1693301,30.2248712 56.0888845,30.8163376 56.0888845,31.4446749 C56.0888845,32.0730122 56.1693301,32.6658193 56.3287847,33.205475 C56.4909208,33.7479079 56.7403978,34.2277082 57.0756834,34.6283079 C57.4095324,35.0290034 57.8334039,35.3492533 58.3336029,35.5767993 C58.8350469,35.8044411 59.4251725,35.9202253 60.0903807,35.9202253 C60.7540565,35.9202253 61.3441822,35.8044411 61.8456262,35.5767993 C62.3458252,35.3492533 62.7696009,35.0289076 63.1036415,34.6283079 C63.4374905,34.2289532 63.6882125,33.7492486 63.8491036,33.205475 C64.0099948,32.6644786 64.0903446,32.0715757 64.0903446,31.4446749 C64.0903446,30.8177742 64.0098032,30.2248712 63.8490079,29.6838749 L63.8490079,29.6838749 Z M77.3013249,34.1961046 C77.2468326,34.03665 77.0928368,34.0966011 77.0928368,34.0966011 C76.8543732,34.1879642 76.6007782,34.2724321 76.3309982,34.314666 C76.0570045,34.3568041 75.7558125,34.3787351 75.4327853,34.3787351 C74.6397261,34.3787351 74.0100481,34.142953 73.5589784,33.6768476 C73.1064721,33.2107422 72.8529728,32.4571397 72.8556543,31.4376838 C72.8584316,30.5095911 73.0818596,29.8117258 73.4839916,29.2803063 C73.8833463,28.7515683 74.4911892,28.4802561 75.3020612,28.4802561 C75.9780912,28.4802561 76.4932301,28.5579243 77.03279,28.7282965 C77.03279,28.7282965 77.162269,28.7841296 77.2235609,28.6151939 C77.366639,28.2171799 77.4729421,27.9323644 77.6255971,27.4948937 C77.6692676,27.3708735 77.5629645,27.317722 77.5247529,27.3026863 C77.3121467,27.2195592 76.810607,27.0847172 76.4317467,27.0274476 C76.0774032,26.9729553 75.6631086,26.9443205 75.202462,26.9443205 C74.5140778,26.9443205 73.900872,27.0615412 73.376252,27.2959825 C72.852877,27.5289873 72.4086069,27.850578 72.0570406,28.2513693 C71.7053786,28.6520648 71.4382802,29.1316736 71.2597677,29.6741065 C71.0825959,30.2151029 70.9926693,30.8093465 70.9926693,31.4376838 C70.9926693,32.7964476 71.3592712,33.8948168 72.0829939,34.6989851 C72.8079616,35.5058349 73.8969455,35.9160115 75.3170969,35.9160115 C76.1566038,35.9160115 77.0179458,35.745735 77.6367063,35.5017168 C77.6367063,35.5017168 77.7552677,35.4444472 77.7034569,35.3069236 L77.3013249,34.1961046 L77.3013249,34.1961046 Z M80.167581,30.5346824 C80.2452493,30.0072852 80.3911047,29.568378 80.6159692,29.2263886 C80.9553729,28.7071317 81.4731933,28.4223161 82.201034,28.4223161 C82.9288748,28.4223161 83.4099201,28.7084725 83.7546868,29.2263886 C83.9836693,29.568378 84.0831728,30.0264389 84.1227252,30.5346824 L80.167581,30.5346824 Z M85.6830817,29.3748298 C85.5441216,28.8501141 85.1992592,28.3199396 84.9730539,28.0773579 C84.6159331,27.6930388 84.2671441,27.4245997 83.9209409,27.2746261 C83.4684347,27.081078 82.9260018,26.9530354 82.3318538,26.9530354 C81.6395432,26.9530354 81.0112059,27.0689154 80.5015258,27.3087197 C79.990505,27.5486199 79.5612705,27.8757652 79.2245484,28.2832602 C78.8878262,28.6893188 78.6344227,29.1731413 78.4735316,29.7223738 C78.3113955,30.2689248 78.2296092,30.8645092 78.2296092,31.4926549 C78.2296092,32.1319098 78.3141728,32.7274943 78.4817677,33.2630318 C78.6507991,33.8027832 78.9205791,34.2783697 79.2858402,34.6721699 C79.6496648,35.0688431 80.1185475,35.379612 80.6800384,35.5961446 C81.2375069,35.811528 81.9148777,35.9232899 82.6929969,35.921867 C84.2944382,35.9163945 85.1379673,35.5593695 85.4855113,35.367162 C85.5468989,35.3331642 85.6055092,35.2732131 85.5317675,35.1015002 L85.1692836,34.0860665 C85.1148871,33.934848 84.9607955,33.9906811 84.9607955,33.9906811 C84.5641223,34.1378773 84.0000457,34.4022942 82.6847608,34.3996127 C81.8248553,34.3982719 81.1869412,34.1447726 80.7875864,33.7480994 C80.3774098,33.3420409 80.1770621,32.7450199 80.1416277,31.9028315 L85.687104,31.9082903 C85.687104,31.9082903 85.8328637,31.9056088 85.8479951,31.7637756 C85.8534539,31.7040161 86.0388618,30.6246091 85.6830817,29.3748298 L85.6830817,29.3748298 Z M35.7563653,30.5346824 C35.8353744,30.0072852 35.9798891,29.568378 36.2047535,29.2263886 C36.5440614,28.7071317 37.0619776,28.4223161 37.7897226,28.4223161 C38.5174676,28.4223161 38.9986086,28.7084725 39.3447161,29.2263886 C39.5722621,29.568378 39.6717656,30.0264389 39.711318,30.5346824 L35.7563653,30.5346824 L35.7563653,30.5346824 Z M41.2704295,29.3748298 C41.1314694,28.8501141 40.7880435,28.3199396 40.5618382,28.0773579 C40.2047174,27.6930388 39.8558327,27.4245997 39.5097252,27.2746261 C39.057219,27.081078 38.5148818,26.9530354 37.9206382,26.9530354 C37.2296683,26.9530354 36.5999902,27.0689154 36.0903102,27.3087197 C35.5792893,27.5486199 35.149959,27.8757652 34.8133327,28.2832602 C34.4767063,28.6893188 34.2232071,29.1731413 34.0624117,29.7223738 C33.9016164,30.2689248 33.8184893,30.8645092 33.8184893,31.4926549 C33.8184893,32.1319098 33.9029571,32.7274943 34.0706478,33.2630318 C34.2396792,33.8027832 34.5095549,34.2783697 34.8747203,34.6721699 C35.2386407,35.0688431 35.7074276,35.379612 36.2689185,35.5961446 C36.826387,35.811528 37.503662,35.9232899 38.281877,35.921867 C39.8832225,35.9163945 40.7268474,35.5593695 41.0743914,35.367162 C41.135779,35.3331642 41.1942936,35.2732131 41.1207433,35.1015002 L40.7596002,34.0860665 C40.7036714,33.934848 40.5497714,33.9906811 40.5497714,33.9906811 C40.153194,34.1378773 39.5902666,34.4022942 38.2723959,34.3996127 C37.4138311,34.3982719 36.7760128,34.1447726 36.376658,33.7480994 C35.9663857,33.3420409 35.7661337,32.7450199 35.7306036,31.9028315 L41.2760799,31.9082903 C41.2760799,31.9082903 41.4218396,31.9056088 41.4368752,31.7637756 C41.4421425,31.7040161 41.6274546,30.6246091 41.2704295,29.3748298 L41.2704295,29.3748298 Z M23.7698813,34.1657459 C23.5531571,33.9925964 23.5231816,33.9490218 23.4496314,33.8372599 C23.340551,33.6668877 23.284718,33.424306 23.284718,33.1163145 C23.284718,32.6283738 23.4455133,32.2781484 23.7794582,32.0423663 C23.7754359,32.0438028 24.2564812,31.6267309 25.3876032,31.6416708 C26.1820988,31.6525884 26.8921267,31.769809 26.8921267,31.769809 L26.8921267,34.2911069 L26.8934674,34.2911069 C26.8934674,34.2911069 26.1888984,34.4423254 25.3957435,34.4900182 C24.267303,34.5582053 23.7657633,34.1644052 23.7698813,34.1657459 L23.7698813,34.1657459 Z M25.9762923,30.2693078 C25.7514278,30.2529314 25.4597169,30.2433546 25.1108322,30.2433546 C24.6352457,30.2433546 24.1759398,30.3033057 23.7452688,30.4191856 C23.3119162,30.5349697 22.9221383,30.7163553 22.5868528,30.9560639 C22.252076,31.1950123 21.9769206,31.507954 21.7827802,31.8705575 C21.5865505,32.2358187 21.487047,32.6664897 21.487047,33.1489715 C21.487047,33.6395937 21.5715149,34.0661467 21.7405463,34.4151272 C21.9095778,34.7653527 22.1535002,35.0569678 22.4641733,35.2819281 C22.7721648,35.5067926 23.1524616,35.6716102 23.5939545,35.7711137 C24.0287436,35.8706172 24.5220473,35.9209914 25.0617987,35.9209914 C25.6300891,35.9209914 26.1970387,35.8747352 26.7462712,35.7805948 C27.2900449,35.6878908 27.9578388,35.552953 28.1431509,35.5108148 C28.2730981,35.4795022 28.4025904,35.446331 28.531588,35.4113113 C28.6693031,35.3773135 28.6583855,35.2300215 28.6583855,35.2300215 L28.6556082,30.1588867 C28.6556082,29.0467269 28.3585343,28.2221599 27.7738675,27.7111391 C27.1918821,27.201459 26.3346581,26.9437459 25.2267121,26.9437459 C24.8109809,26.9437459 24.1418462,27.0011112 23.7411507,27.081461 C23.7411507,27.081461 22.5295832,27.3159024 22.0307249,27.7056803 C22.0307249,27.7056803 21.9217404,27.7738675 21.9816915,27.9265225 L22.3742466,28.9814128 C22.4232801,29.1176914 22.5555364,29.0713394 22.5555364,29.0713394 C22.5555364,29.0713394 22.5977704,29.054963 22.6468996,29.0263282 C23.7140483,28.4457794 25.0632352,28.4634966 25.0632352,28.4634966 C25.6629377,28.4634966 26.1235843,28.5833988 26.4342574,28.8218624 C26.7367901,29.0535264 26.8907859,29.4037519 26.8907859,30.1424145 L26.8907859,30.3768559 C26.4137629,30.3087645 25.9762923,30.2693078 25.9762923,30.2693078 L25.9762923,30.2693078 Z M70.7029695,27.4119582 C70.7451076,27.2865014 70.6566175,27.2265503 70.6197466,27.2129512 C70.5257977,27.1761761 70.0542335,27.0766726 69.6903131,27.0534966 C68.9939802,27.0112627 68.6069796,27.1284834 68.2606806,27.2838199 C67.9172547,27.4391565 67.5357129,27.6898785 67.323011,27.9747898 L67.323011,27.3001963 C67.323011,27.2061517 67.2562604,27.1311649 67.1635564,27.1311649 L65.7420643,27.1311649 C65.6494561,27.1311649 65.5827054,27.2060559 65.5827054,27.3001963 L65.5827054,35.5713405 C65.5827054,35.6640445 65.659033,35.740372 65.7516411,35.740372 L67.2085676,35.740372 C67.3014696,35.7398445 67.376428,35.6642436 67.3761626,35.5713405 L67.3761626,31.4392161 C67.3761626,30.8845248 67.4375502,30.3312701 67.5602297,29.9837261 C67.6801318,29.6402044 67.8437045,29.3649657 68.045393,29.1672995 C68.2484223,28.9710698 68.4787456,28.8334504 68.7309041,28.7557821 C68.9884256,28.6766773 69.2732412,28.6508198 69.4750255,28.6508198 C69.7652999,28.6508198 70.0842091,28.7257108 70.0842091,28.7257108 C70.1904164,28.7379692 70.2504632,28.6725593 70.2858018,28.5758331 C70.381283,28.3223338 70.6511587,27.5631767 70.7029695,27.4119582 L70.7029695,27.4119582 Z" id="Shape" fill="#FFFFFF"></path>
                        <path d="M57.0277033,23.5785358 C56.8505316,23.5240435 56.6897362,23.4871726 56.4798116,23.447716 C56.2671097,23.4096001 56.0137062,23.3904464 55.7262091,23.3904464 C54.7230339,23.3904464 53.9325605,23.6739212 53.377965,24.2326348 C52.8259552,24.7887626 52.4511172,25.635069 52.2630278,26.7485697 L52.1948406,27.1233119 L50.9356761,27.1233119 C50.9356761,27.1233119 50.7830211,27.1178531 50.7502682,27.284203 L50.5445575,28.438501 C50.5295218,28.5475813 50.5773103,28.6170135 50.7244107,28.6170135 L51.9496732,28.6170135 L50.7066936,35.556688 C50.6098716,36.1154973 50.4981097,36.5748031 50.3740895,36.9235921 C50.2527508,37.2671138 50.1342851,37.5246353 49.9870889,37.7127247 C49.8453515,37.8926738 49.7117544,38.0261751 49.4799946,38.1038433 C49.2892237,38.1679125 49.0684772,38.197888 48.8272363,38.197888 C48.6936392,38.197888 48.5152225,38.175957 48.3829661,38.1487588 C48.2521463,38.1228055 48.1826184,38.0942665 48.0831149,38.0519368 C48.0831149,38.0519368 47.9400367,37.9975403 47.8827672,38.1406185 C47.8377559,38.2591799 47.5107064,39.1572013 47.471154,39.2677182 C47.4330382,39.3780435 47.4875305,39.4639479 47.5569626,39.4898054 C47.7205353,39.547075 47.8417782,39.5851908 48.0639612,39.6383424 C48.3720485,39.7106476 48.6322516,39.7146699 48.876174,39.7146699 C49.3858541,39.7146699 49.8519595,39.6424604 50.2377151,39.5035003 C50.6248115,39.3631036 50.9626828,39.1190854 51.2625341,38.7893544 C51.5855613,38.4322336 51.7885906,38.0588321 51.9822345,37.5478113 C52.1743462,37.0434943 52.3393553,36.4165935 52.4700794,35.686167 L53.7198586,28.6170135 L55.5460685,28.6170135 C55.5460685,28.6170135 55.6999686,28.6224723 55.7314764,28.4548774 L55.9385279,27.3019202 C55.9522228,27.1915948 55.9058709,27.1234077 55.7572381,27.1234077 L53.9841797,27.1234077 C53.9937566,27.083951 54.0741063,26.459636 54.2772314,25.8723834 C54.3644765,25.6230022 54.5279534,25.4198772 54.6656685,25.2808213 C54.8020429,25.1445427 54.9587202,25.0478165 55.1305289,24.9918877 C55.3062642,24.9346181 55.5067077,24.9074198 55.7261134,24.9074198 C55.8923675,24.9074198 56.0571851,24.9264777 56.1812054,24.9523353 C56.3529183,24.9892061 56.419669,25.0082641 56.464776,25.021959 C56.6460658,25.0764513 56.6704868,25.0232997 56.7060169,24.9361504 L57.1298884,23.7722755 C57.173463,23.6466272 57.0658192,23.5934757 57.0277033,23.5785358 L57.0277033,23.5785358 Z M32.254302,35.5717236 C32.254302,35.6644275 32.1875513,35.7394143 32.0948474,35.7394143 L30.6243218,35.7394143 C30.5316178,35.7394143 30.4662079,35.6644275 30.4662079,35.5717236 L30.4662079,23.7366496 C30.4662079,23.6440415 30.5316178,23.5690547 30.6243218,23.5690547 L32.0948474,23.5690547 C32.1875513,23.5690547 32.254302,23.6440415 32.254302,23.7366496 L32.254302,35.5717236 Z" id="Shape" fill="#FFFFFF"></path>
                    </g>
                </g>
            </g>
        </g>
    </g>
</svg>