<?xml version="1.0" encoding="UTF-8"?>
<svg width="255px" height="56px" viewBox="0 0 255 56" version="1.1" xmlns="http://www.w3.org/2000/svg" xmlns:xlink="http://www.w3.org/1999/xlink">
    <!-- Generator: Sketch 56.3 (81716) - https://sketch.com -->
    <title>Segment</title>
    <desc>Created with Sketch.</desc>
    <defs>
        <polygon id="path-1" points="55.8467343 23.3141982 0 23.3141982 0 0.350349973 55.8467343 0.350349973"></polygon>
        <polygon id="path-3" points="55.8467343 23.3141982 0 23.3141982 0 0.350349973 55.8467343 0.350349973"></polygon>
    </defs>
    <g id="Website" stroke="none" stroke-width="1" fill="none" fill-rule="evenodd">
        <g id="Landing-Page" transform="translate(-945.000000, -1428.000000)">
            <g id="Customers" transform="translate(50.000000, 1422.000000)">
                <g id="Segment" transform="translate(895.000000, 6.000000)">
                    <g id="segment-vector-logo">
                        <path d="M94.9171953,26.6025335 L90.278774,25.5974891 C87.9577916,25.094967 86.680011,23.665256 86.680011,21.5702339 C86.680011,18.9075741 89.0470587,16.8989009 92.1865861,16.8989009 C96.5308981,16.8989009 97.8136396,20.0909785 98.1042053,21.0705428 C98.1963359,21.3961206 98.4231189,21.6721539 98.7278586,21.8243261 C99.0255113,21.9764983 99.3585988,21.9991472 99.6775125,21.8880261 L102.122517,21.0266606 C102.731835,20.8105388 103.067263,20.1579245 102.887909,19.5374963 C102.257169,17.322152 99.9397303,12.1695302 92.0802815,12.1695302 C86.2618798,12.1695302 81.3506102,16.6143743 81.3506102,21.8767017 C81.3506102,26.3994013 84.3221764,29.7401122 89.3021896,30.8230121 L93.7244584,31.7855898 C96.386324,32.3447342 97.9766399,33.9655452 97.9766399,36.1171895 C97.9766399,38.863367 95.7158967,40.5691113 92.0731946,40.5691113 C87.7926652,40.5691113 85.7303572,37.7663116 85.2271823,35.1404562 C85.1628143,34.7979777 84.9544189,34.4995358 84.654871,34.3208524 C84.3553232,34.142169 83.9934117,34.1004169 83.6609622,34.2061896 L80.9750009,35.0626006 C80.3904854,35.240441 80.0333529,35.8287929 80.1458255,36.4286117 C80.9820878,40.7814447 84.5631333,45.4244665 92.1228033,45.4244665 C98.5109973,45.4244665 103.328719,41.2698113 103.328719,35.7633006 C103.328719,31.1132009 100.255809,27.7724901 94.8952257,26.5905013 L94.9171953,26.6025335 Z M122.358649,30.8371676 C122.372822,30.9291787 122.330301,30.9999565 122.301953,31.0282676 C122.254427,31.0870014 122.182672,31.1208781 122.107061,31.1202865 L112.256174,31.1202865 C112.176713,31.1202865 112.101677,31.083742 112.052778,31.0211898 C112.007265,30.9687232 111.988914,30.8980317 112.003169,30.8300899 C112.453192,28.77895 114.214304,26.7108235 117.134135,26.7108235 C120.002231,26.7108235 121.953274,28.2467012 122.353688,30.8251354 L122.358649,30.8371676 Z M117.095865,22.1173461 C111.908204,22.1173461 106.543368,26.4489458 106.543368,33.7036674 C106.543368,37.2000894 107.691457,40.1869114 109.867157,42.3314779 C111.882691,44.3203333 114.636687,45.4173887 117.620301,45.4173887 C122.063831,45.4173887 125.664011,43.0987089 127.251492,39.2172559 C127.379057,38.8987559 127.371971,38.544867 127.234483,38.2334448 C127.097437,37.9279944 126.839451,37.6931607 126.522243,37.5851205 L124.35363,36.8348761 C123.751748,36.6284146 123.09212,36.9191133 122.839145,37.5023105 C121.903665,39.7034992 120.146097,40.8147102 117.616049,40.8147102 C114.554478,40.8147102 112.222865,38.755077 111.818908,35.6882762 C111.80859,35.6187216 111.830794,35.5482843 111.879147,35.4971762 C111.907495,35.4617873 111.971278,35.4051651 112.070495,35.4051651 L126.445704,35.4051651 C127.090618,35.4051651 127.629227,34.9026429 127.664662,34.2613963 C127.678836,34.0561407 127.685923,33.8296519 127.685923,33.6059941 C127.685923,26.5140613 123.62509,22.1095605 117.090904,22.1095605 L117.095865,22.1173461 Z M141.574257,39.3305003 C138.122903,39.3305003 135.975551,36.9382116 135.975551,33.0879008 C135.975551,29.2942122 138.172512,26.8424702 141.574257,26.8424702 C144.869697,26.8424702 147.083667,29.3480033 147.083667,33.0850697 C147.083667,36.8178894 144.86828,39.3276692 141.573548,39.3276692 L141.574257,39.3305003 Z M150.773143,22.7685016 L148.172225,22.7685016 C147.498963,22.7685016 146.949723,23.3156138 146.949723,24.0212682 C146.949251,24.1232734 146.887909,24.2151668 146.793809,24.2548348 C146.744201,24.2760681 146.644983,24.3043792 146.555687,24.2194459 C145.21625,22.996406 143.331116,22.375685 140.956982,22.375685 C135.072671,22.375685 130.801355,26.8842291 130.801355,33.0914397 C130.801355,39.2717548 135.072671,43.75765 140.956982,43.75765 C143.132681,43.75765 145.102859,43.04421 146.506079,41.7489768 C146.598209,41.6640435 146.697427,41.6852768 146.747035,41.7065101 C146.78247,41.7206657 146.902949,41.7843657 146.902949,41.9400768 L146.902949,42.8318767 C146.902949,47.1493208 145.010728,49.1629485 140.956982,49.1629485 C138.384412,49.1629485 136.364626,47.5704486 135.818929,45.1087977 C135.748059,44.7902977 135.556711,44.5213421 135.280319,44.3493522 C135.003928,44.1773622 134.67084,44.1228633 134.351926,44.1936411 L131.797783,44.7810966 C131.145229,44.93617 130.737319,45.5847048 130.880729,46.2391187 C131.794948,50.7122739 135.84586,53.7203292 140.951312,53.7203292 C144.757015,53.7203292 147.655585,52.5631126 149.569067,50.2805295 C151.149461,48.3935941 151.985723,45.7741087 151.985723,42.7051845 L151.985723,24.0078204 C151.985723,23.3354315 151.440026,22.7904427 150.766764,22.7904427 L150.773143,22.7685016 Z M181.693589,22.1569816 C178.81628,22.1569816 176.475454,23.2412971 174.922699,25.2995147 C174.869326,25.3770017 174.779301,25.4210163 174.685285,25.4155903 C174.615556,25.4164241 174.550694,25.3799866 174.515198,25.3200403 C173.213322,23.3099515 170.966044,22.1562739 168.349535,22.1562739 C166.268092,22.1562739 164.267441,22.8867005 162.858551,24.1628237 C162.78886,24.2355851 162.680324,24.2555527 162.589246,24.2123681 C162.50021,24.1758419 162.443566,24.087591 162.447507,23.9915415 C162.447507,23.3191527 161.898976,22.7741638 161.225713,22.7741638 L158.755196,22.7741638 C158.081934,22.7741638 157.536237,23.3191527 157.536237,23.9915415 L157.536237,43.54744 C157.536237,44.2198288 158.084769,44.7662332 158.758031,44.7662332 L161.358948,44.7662332 C162.032211,44.7662332 162.577907,44.2169977 162.577907,43.5446089 L162.577907,31.6235087 C162.577907,28.7265745 164.349649,26.7794779 166.993089,26.7794779 C170.45153,26.7794779 170.968879,29.4881433 170.968879,31.1018765 L170.968879,43.5658422 C170.968879,44.2382311 171.514575,44.7832199 172.187837,44.7832199 L174.833403,44.7832199 C175.506665,44.7832199 176.052362,44.2353999 176.052362,43.5630111 L176.052362,31.581042 C176.052362,28.7527622 177.852452,26.7780624 180.425022,26.7780624 C183.885589,26.7780624 184.400811,29.4888511 184.400811,31.1025843 L184.400811,43.56655 C184.400811,44.2389388 184.946508,44.7839277 185.61977,44.7839277 L188.220688,44.7839277 C188.89395,44.7839277 189.439646,44.2361077 189.439646,43.5637189 L189.439646,30.660931 C189.439646,24.8005314 185.5489,22.1796305 181.693589,22.1796305 L181.693589,22.1569816 Z M199.27636,31.1372654 C199.197282,31.1370027 199.122547,31.1011138 199.072964,31.0395921 C199.029325,30.9873015 199.012088,30.9179217 199.02619,30.8513232 C199.476921,28.7987678 201.237324,26.7320568 204.15999,26.7320568 C207.027378,26.7320568 208.979129,28.2679345 209.378834,30.8442454 C209.393008,30.9362565 209.34836,31.0070343 209.322138,31.0353454 C209.271161,31.0885455 209.200969,31.1191348 209.127247,31.1202787 L199.27636,31.1202787 L199.27636,31.1372654 Z M204.116759,22.1343327 C198.929098,22.1343327 193.564262,26.4687635 193.564262,33.7206541 C193.564262,37.2213227 194.712351,40.2060214 196.885216,42.3527112 C198.897915,44.3415666 201.647659,45.4315443 204.63836,45.4315443 C209.074803,45.4315443 212.674983,43.1100334 214.269551,39.2243337 C214.397117,38.9058337 214.39003,38.5519448 214.248291,38.2405226 C214.106551,37.9291004 213.85142,37.7026116 213.532507,37.5893671 L211.363894,36.8405383 C210.761502,36.6331594 210.095327,36.9254716 209.8487,37.5072649 C208.91322,39.7027914 207.155652,40.8196646 204.625604,40.8196646 C201.564033,40.8196646 199.23242,38.7557848 198.828463,35.6882762 C198.817526,35.6179925 198.838282,35.5464773 198.885159,35.4929295 C198.913507,35.4575406 198.977289,35.4044573 199.076507,35.4044573 L213.455967,35.4044573 C214.100882,35.4044573 214.637365,34.9019351 214.674926,34.2599807 C214.686974,34.0547252 214.696187,33.8282363 214.696187,33.6017474 C214.696187,26.5098146 210.635354,22.1003594 204.101168,22.1003594 L204.116759,22.1343327 Z M230.175545,22.1789227 C227.975041,22.1789227 226.045968,22.9277516 224.5981,24.3447226 C224.530141,24.4130739 224.427136,24.4327486 224.338717,24.394267 C224.24756,24.3545392 224.188978,24.2642729 224.189891,24.164947 L224.189891,24.0092359 C224.189891,23.3368471 223.641359,22.7918583 222.968097,22.7918583 L220.416789,22.7918583 C219.743526,22.7918583 219.194995,23.3368471 219.194995,24.0092359 L219.194995,43.5615956 C219.194995,44.2339844 219.740692,44.7810966 220.413954,44.7810966 L223.057393,44.7810966 C223.730655,44.7810966 224.279895,44.2325688 224.279895,43.56018 L224.279895,32.1458486 C224.279895,29.5921866 225.438615,26.8629957 228.695077,26.8629957 C231.621995,26.8629957 233.107424,28.4788523 233.107424,31.6652676 L233.107424,43.5559333 C233.107424,44.2283222 233.653121,44.773311 234.326383,44.773311 L236.969822,44.773311 C237.643084,44.773311 238.190198,44.2212444 238.190198,43.5488556 L238.190198,30.9652754 C238.190198,25.543698 235.115871,22.1746761 230.174836,22.1746761 L230.175545,22.1789227 Z M250.507351,27.4745157 L253.590182,27.4745157 C254.263445,27.4745157 254.809141,26.9259879 254.809141,26.2543069 L254.809141,24.0078204 C254.809141,23.3354315 254.263445,22.7904427 253.590182,22.7904427 L250.507351,22.7904427 C250.37036,22.7904427 250.259307,22.6795337 250.259307,22.5427205 L250.259307,17.3660342 C250.259307,16.6936454 249.709358,16.147241 249.036805,16.147241 L246.740627,16.147241 C246.067365,16.147241 245.521668,16.6936454 245.521668,17.3660342 L245.521668,20.041434 C245.521668,21.2942006 245.041172,22.7897349 242.766254,22.7897349 L242.374345,22.7897349 C241.701083,22.7897349 241.155386,23.3347238 241.155386,24.0071126 L241.155386,26.250768 C241.155386,26.9231568 241.703209,27.4681457 242.374345,27.4681457 L244.932741,27.4681457 C245.070937,27.4681457 245.180785,27.5743123 245.180785,27.7158679 L245.180785,38.5236337 C245.180785,42.5155001 247.615159,44.9927221 251.530709,44.9927221 C252.622102,44.9927221 253.471121,44.837011 253.880039,44.7449999 C254.432823,44.6175999 254.821189,44.1292333 254.821189,43.5559333 L254.821189,41.4757746 C254.820734,41.1297023 254.673242,40.8000812 254.415392,40.5688842 C254.157542,40.3376871 253.813562,40.2266373 253.468995,40.2633514 C253.192603,40.2916625 252.924716,40.3079414 252.714942,40.3079414 C250.936112,40.3079414 250.269937,39.6567858 250.269937,37.9085749 L250.269937,27.7165757 C250.269937,27.5806823 250.383329,27.470269 250.517981,27.470269 L250.507351,27.4745157 Z" id="Shape" fill="#2D2D2D"></path>
                        <g id="Group" transform="translate(0.000000, 31.849998)">
                            <g id="Clipped">
                                <mask id="mask-2" fill="white">
                                    <use xlink:href="#path-1"></use>
                                </mask>
                                <g id="a"></g>
                                <path d="M36.799796,6.01398732 L2.83478766,6.01398732 C1.26856748,6.01398732 0,4.74706519 0,3.18287642 C0,1.61868765 1.26856748,0.351765529 2.83478766,0.351765529 L36.799796,0.351765529 C38.3660162,0.351765529 39.6345837,1.61868765 39.6345837,3.18287642 C39.6345837,4.74706519 38.3660162,6.01398732 36.799796,6.01398732" id="Path" fill="#2D2D2D" mask="url(#mask-2)"></path>
                            </g>
                            <g id="Clipped">
                                <mask id="mask-4" fill="white">
                                    <use xlink:href="#path-3"></use>
                                </mask>
                                <g id="a"></g>
                                <path d="M29.5172265,23.3566649 C26.7504738,23.3566649 24.0177385,22.9461538 21.3955599,22.1343327 C19.9003118,21.6715823 19.0636651,20.0860116 19.5267261,18.592613 C19.9902139,17.0921242 21.5819472,16.2569465 23.0737542,16.7240798 C25.1516535,17.3681576 27.3188487,17.6937353 29.5172265,17.6937353 C39.1363698,17.6937353 47.4883629,11.5289913 50.301181,2.34911426 C50.5210266,1.63121461 51.0177079,1.03009658 51.6817431,0.678262593 C52.3457782,0.326428608 53.1226525,0.25276288 53.8411221,0.473503297 C55.3378899,0.92648104 56.1798219,2.51190314 55.7220037,4.00531414 C52.1756843,15.5781877 41.6444481,23.3566649 29.5172265,23.3566649" id="Path" fill="#2D2D2D" mask="url(#mask-4)"></path>
                            </g>
                        </g>
                        <path d="M56.1996654,23.480526 L22.2360744,23.480526 C20.6698542,23.480526 19.4012868,22.2136039 19.4012868,20.6494151 C19.4012868,19.0852263 20.6698542,17.8183042 22.2360744,17.8183042 L56.1996654,17.8183042 C57.7658856,17.8183042 59.0344531,19.0852263 59.0344531,20.6494151 C59.0344531,22.2136039 57.7658856,23.480526 56.1996654,23.480526" id="Path" fill="#2D2D2D"></path>
                        <path d="M6.02392378,23.4812338 C5.12481417,23.4813573 4.27895551,23.0554977 3.74433238,22.3335409 C3.20970926,21.6115842 3.04971895,20.6791423 3.31315808,19.8206074 C6.86018614,8.24844159 17.3914223,0.47562663 29.5172265,0.47562663 C32.2861054,0.47562663 35.0188407,0.88613771 37.6388932,1.69866654 C38.3571074,1.92088181 38.9575045,2.41895565 39.3079852,3.08330174 C39.6584659,3.74764784 39.730316,4.52383775 39.5077269,5.24109404 C39.2858898,5.9588 38.7872347,6.55886251 38.121787,6.90888151 C37.4563393,7.2589005 36.6787894,7.3301093 35.9606989,7.10679612 C33.8842169,6.46979617 31.7156044,6.14421842 29.5172265,6.14421842 C19.9002094,6.14421842 11.5467988,12.3089624 8.73398079,21.4888395 C8.36902529,22.6780795 7.27008762,23.49052 6.02463248,23.4918504" id="Path" fill="#2D2D2D"></path>
                        <path d="M49.1778964,9.86075924 C49.1778964,11.4243386 47.9087187,12.6918701 46.3431087,12.6918701 C44.7774987,12.6918701 43.508321,11.4243386 43.508321,9.86075924 C43.508321,8.29717987 44.7774987,7.02964835 46.3431087,7.02964835 C47.9087187,7.02964835 49.1778964,8.29717987 49.1778964,9.86075924 M15.5254233,45.8257765 C15.5254233,47.3893559 14.2562457,48.6568874 12.6906357,48.6568874 C11.1250257,48.6568874 9.855848,47.3893559 9.855848,45.8257765 C9.855848,44.2621971 11.1250257,42.9946656 12.6906357,42.9946656 C14.2562457,42.9946656 15.5254233,44.2621971 15.5254233,45.8257765" id="Shape" fill="#2D2D2D" fill-rule="nonzero"></path>
                    </g>
                </g>
            </g>
        </g>
    </g>
</svg>